<svg width="345" height="203" viewBox="0 0 345 203" fill="none" xmlns="http://www.w3.org/2000/svg">
<path d="M293.487 87.7604C293.433 87.7605 293.379 87.7495 293.329 87.7281C293.279 87.7067 293.234 87.6754 293.197 87.636C293.159 87.5967 293.13 87.5501 293.111 87.4992C293.092 87.4482 293.084 87.394 293.087 87.3397L293.087 31.423C293.084 31.3687 293.092 31.3144 293.111 31.2635C293.13 31.2125 293.159 31.166 293.197 31.1266C293.234 31.0873 293.279 31.0559 293.329 31.0345C293.379 31.0132 293.433 31.0022 293.487 31.0023C293.598 31.0023 293.705 31.0466 293.784 31.1255C293.863 31.2044 293.907 31.3114 293.907 31.423L293.907 87.3397C293.907 87.4513 293.863 87.5583 293.784 87.6372C293.705 87.7161 293.598 87.7604 293.487 87.7604Z" fill="#27A577"/>
<path d="M293.506 87.7604C293.395 87.7604 293.288 87.7161 293.209 87.6372C293.13 87.5583 293.086 87.4513 293.086 87.3397L293.086 31.423C293.086 31.3114 293.13 31.2044 293.209 31.1255C293.288 31.0466 293.395 31.0023 293.506 31.0023C293.561 31.0022 293.615 31.0132 293.664 31.0345C293.714 31.0559 293.759 31.0873 293.797 31.1266C293.834 31.166 293.863 31.2125 293.882 31.2635C293.901 31.3144 293.91 31.3687 293.907 31.423L293.907 87.3397C293.91 87.394 293.901 87.4482 293.882 87.4992C293.863 87.5501 293.834 87.5967 293.797 87.636C293.759 87.6754 293.714 87.7067 293.664 87.7281C293.615 87.7495 293.561 87.7605 293.506 87.7604Z" fill="#27A577"/>
<path d="M196.691 87.7604C196.637 87.7605 196.583 87.7495 196.533 87.7281C196.483 87.7067 196.438 87.6754 196.401 87.636C196.363 87.5967 196.334 87.5501 196.315 87.4992C196.296 87.4482 196.288 87.394 196.291 87.3397L196.291 31.423C196.288 31.3687 196.296 31.3144 196.315 31.2635C196.334 31.2125 196.363 31.166 196.401 31.1266C196.438 31.0873 196.483 31.0559 196.533 31.0346C196.583 31.0132 196.637 31.0022 196.691 31.0023C196.803 31.0023 196.91 31.0466 196.988 31.1255C197.067 31.2044 197.112 31.3114 197.112 31.423L197.112 87.3397C197.112 87.4513 197.067 87.5583 196.988 87.6372C196.91 87.7161 196.803 87.7604 196.691 87.7604Z" fill="#27A577"/>
<path d="M196.711 87.7604C196.599 87.7604 196.492 87.7161 196.413 87.6372C196.335 87.5583 196.29 87.4513 196.29 87.3397L196.29 31.423C196.29 31.3114 196.335 31.2044 196.413 31.1255C196.492 31.0466 196.599 31.0023 196.711 31.0023C196.765 31.0022 196.819 31.0132 196.869 31.0346C196.919 31.0559 196.964 31.0873 197.001 31.1266C197.039 31.166 197.068 31.2125 197.087 31.2635C197.105 31.3144 197.114 31.3687 197.111 31.423L197.111 87.3397C197.114 87.394 197.105 87.4482 197.087 87.4992C197.068 87.5501 197.039 87.5967 197.001 87.636C196.964 87.6754 196.919 87.7067 196.869 87.7281C196.819 87.7495 196.765 87.7605 196.711 87.7604Z" fill="#27A577"/>
<path d="M99.894 87.7604C99.7825 87.7604 99.6756 87.7161 99.5968 87.6372C99.5179 87.5583 99.4736 87.4512 99.4736 87.3397L99.4736 31.423C99.4736 31.3114 99.5179 31.2044 99.5968 31.1255C99.6756 31.0466 99.7825 31.0023 99.894 31.0023C99.9483 31.0022 100.002 31.0132 100.052 31.0345C100.102 31.0559 100.147 31.0873 100.184 31.1266C100.222 31.166 100.251 31.2125 100.27 31.2634C100.289 31.3144 100.297 31.3687 100.294 31.423L100.294 87.3397C100.297 87.3939 100.289 87.4482 100.27 87.4992C100.251 87.5501 100.222 87.5967 100.184 87.636C100.147 87.6754 100.102 87.7067 100.052 87.7281C100.002 87.7495 99.9483 87.7604 99.894 87.7604Z" fill="#27A577"/>
<path d="M99.8943 87.7604C99.84 87.7604 99.7863 87.7495 99.7363 87.7281C99.6864 87.7067 99.6413 87.6754 99.6039 87.636C99.5664 87.5967 99.5374 87.5501 99.5184 87.4992C99.4995 87.4482 99.4912 87.3939 99.4939 87.3397L99.4939 31.423C99.4912 31.3687 99.4995 31.3144 99.5184 31.2634C99.5373 31.2125 99.5664 31.166 99.6039 31.1266C99.6413 31.0873 99.6864 31.0559 99.7363 31.0345C99.7863 31.0132 99.84 31.0022 99.8943 31.0023C100.006 31.0023 100.113 31.0466 100.192 31.1255C100.271 31.2044 100.315 31.3114 100.315 31.423L100.315 87.3397C100.315 87.4512 100.271 87.5583 100.192 87.6372C100.113 87.7161 100.006 87.7604 99.8943 87.7604Z" fill="#27A577"/>
<path d="M343.437 168.58C342.908 168.276 342.301 168.136 341.693 168.177C341.084 168.219 340.501 168.44 340.018 168.813C339.536 169.186 339.174 169.694 338.98 170.273C338.785 170.851 338.767 171.475 338.927 172.064C339.087 172.653 339.417 173.181 339.877 173.582C340.337 173.983 340.906 174.239 341.511 174.316C342.116 174.393 342.73 174.29 343.277 174.017C343.823 173.745 344.276 173.317 344.578 172.787C344.979 172.077 345.083 171.237 344.87 170.45C344.656 169.662 344.142 168.991 343.437 168.58Z" fill="#27A577"/>
<path d="M340.355 168.581C340.882 168.273 341.489 168.13 342.098 168.168C342.707 168.206 343.291 168.425 343.776 168.795C344.261 169.166 344.626 169.673 344.823 170.251C345.02 170.829 345.041 171.452 344.884 172.042C344.727 172.632 344.398 173.163 343.939 173.566C343.481 173.969 342.913 174.226 342.308 174.306C341.703 174.386 341.088 174.284 340.54 174.014C339.993 173.744 339.538 173.317 339.234 172.788C338.837 172.078 338.732 171.242 338.942 170.457C339.151 169.671 339.658 168.998 340.355 168.581Z" fill="#27A577"/>
<path d="M291.965 196.55C291.439 196.857 291.016 197.313 290.749 197.861C290.482 198.409 290.383 199.024 290.464 199.628C290.546 200.232 290.805 200.798 291.208 201.255C291.611 201.713 292.14 202.04 292.729 202.196C293.317 202.353 293.939 202.331 294.516 202.134C295.092 201.937 295.598 201.574 295.968 201.09C296.338 200.606 296.557 200.023 296.596 199.414C296.636 198.806 296.494 198.2 296.19 197.672C295.776 196.965 295.1 196.45 294.308 196.24C293.517 196.03 292.675 196.141 291.965 196.55Z" fill="#27A577"/>
<path d="M290.403 199.153C290.403 198.543 290.584 197.946 290.923 197.439C291.261 196.932 291.743 196.536 292.306 196.303C292.87 196.069 293.49 196.008 294.088 196.127C294.686 196.246 295.235 196.54 295.666 196.971C296.097 197.403 296.391 197.953 296.51 198.551C296.629 199.15 296.568 199.77 296.335 200.334C296.101 200.898 295.706 201.379 295.199 201.719C294.692 202.058 294.096 202.238 293.486 202.238C292.668 202.238 291.884 201.913 291.306 201.335C290.728 200.756 290.403 199.971 290.403 199.153Z" fill="#27A577"/>
<path d="M290.424 199.153C290.424 198.543 290.605 197.946 290.944 197.439C291.282 196.932 291.764 196.536 292.327 196.303C292.891 196.069 293.51 196.008 294.108 196.127C294.707 196.246 295.256 196.54 295.687 196.971C296.118 197.403 296.412 197.953 296.531 198.551C296.65 199.15 296.589 199.77 296.355 200.334C296.122 200.898 295.727 201.379 295.22 201.719C294.713 202.058 294.117 202.238 293.507 202.238C292.689 202.238 291.905 201.913 291.327 201.335C290.749 200.756 290.424 199.971 290.424 199.153Z" fill="#27A577"/>
<path d="M293.506 199.634C293.441 199.654 293.371 199.654 293.306 199.634L244.898 171.586C244.804 171.531 244.735 171.442 244.705 171.338C244.675 171.233 244.687 171.121 244.738 171.025C244.765 170.978 244.801 170.937 244.844 170.904C244.887 170.872 244.936 170.848 244.988 170.835C245.041 170.822 245.095 170.82 245.148 170.828C245.202 170.837 245.253 170.856 245.298 170.885L293.707 198.933C293.801 198.988 293.87 199.077 293.9 199.181C293.929 199.286 293.918 199.398 293.867 199.494C293.821 199.543 293.765 199.582 293.703 199.606C293.64 199.63 293.573 199.64 293.506 199.634Z" fill="#27A577"/>
<path d="M295.048 196.549C295.577 196.854 296.004 197.309 296.274 197.857C296.544 198.404 296.645 199.02 296.566 199.626C296.486 200.231 296.228 200.799 295.826 201.258C295.423 201.717 294.893 202.046 294.304 202.204C293.714 202.361 293.091 202.34 292.513 202.142C291.936 201.945 291.43 201.581 291.059 201.095C290.689 200.61 290.47 200.025 290.432 199.416C290.394 198.806 290.537 198.199 290.844 197.671C291.045 197.32 291.314 197.012 291.635 196.765C291.955 196.518 292.322 196.338 292.713 196.233C293.104 196.129 293.511 196.103 293.912 196.157C294.313 196.212 294.699 196.345 295.048 196.549Z" fill="#27A577"/>
<path d="M246.64 168.581C246.112 168.274 245.506 168.13 244.897 168.169C244.287 168.207 243.703 168.425 243.218 168.796C242.733 169.167 242.369 169.673 242.172 170.251C241.975 170.829 241.954 171.453 242.111 172.043C242.268 172.633 242.597 173.163 243.055 173.566C243.514 173.969 244.082 174.227 244.687 174.307C245.292 174.386 245.907 174.285 246.454 174.014C247.002 173.744 247.456 173.317 247.761 172.788C248.168 172.081 248.279 171.241 248.069 170.453C247.859 169.664 247.345 168.991 246.64 168.581Z" fill="#27A577"/>
<path d="M340.354 112.643C339.827 112.951 339.404 113.407 339.137 113.955C338.87 114.503 338.771 115.118 338.853 115.722C338.934 116.326 339.193 116.892 339.596 117.349C339.999 117.806 340.528 118.134 341.117 118.29C341.706 118.447 342.328 118.425 342.904 118.228C343.48 118.031 343.986 117.667 344.356 117.183C344.726 116.699 344.945 116.116 344.984 115.508C345.024 114.9 344.882 114.293 344.578 113.765C344.164 113.059 343.488 112.544 342.697 112.334C341.905 112.124 341.063 112.235 340.354 112.643Z" fill="#27A577"/>
<path d="M341.894 171.665C341.839 171.665 341.786 171.654 341.736 171.633C341.686 171.612 341.641 171.58 341.603 171.541C341.566 171.502 341.537 171.455 341.518 171.404C341.499 171.353 341.491 171.299 341.493 171.245L341.493 115.308C341.493 115.202 341.535 115.1 341.611 115.025C341.686 114.949 341.787 114.907 341.894 114.907C341.948 114.904 342.002 114.913 342.053 114.932C342.104 114.951 342.15 114.98 342.19 115.017C342.229 115.055 342.26 115.1 342.282 115.15C342.303 115.2 342.314 115.254 342.314 115.308L342.314 171.245C342.314 171.356 342.27 171.463 342.191 171.542C342.112 171.621 342.005 171.665 341.894 171.665Z" fill="#27A577"/>
<path d="M338.812 115.308C338.812 114.698 338.993 114.101 339.332 113.594C339.67 113.087 340.152 112.691 340.715 112.458C341.279 112.224 341.898 112.163 342.496 112.282C343.095 112.401 343.644 112.695 344.075 113.127C344.506 113.558 344.8 114.108 344.919 114.706C345.038 115.305 344.977 115.925 344.743 116.489C344.51 117.053 344.115 117.535 343.608 117.874C343.101 118.213 342.505 118.394 341.895 118.394C341.489 118.396 341.087 118.318 340.712 118.164C340.337 118.01 339.996 117.783 339.709 117.496C339.422 117.209 339.195 116.868 339.041 116.492C338.887 116.117 338.809 115.714 338.812 115.308Z" fill="#27A577"/>
<path d="M341.895 168.159C340.192 168.159 338.812 169.541 338.812 171.245C338.812 172.949 340.192 174.33 341.895 174.33C343.598 174.33 344.978 172.949 344.978 171.245C344.978 169.541 343.598 168.159 341.895 168.159Z" fill="#27A577"/>
<path d="M340.374 173.929C339.845 173.626 339.417 173.173 339.145 172.627C338.873 172.08 338.769 171.465 338.847 170.86C338.924 170.254 339.179 169.685 339.58 169.225C339.981 168.764 340.509 168.433 341.097 168.273C341.686 168.114 342.309 168.132 342.887 168.327C343.465 168.521 343.973 168.883 344.346 169.366C344.718 169.849 344.939 170.432 344.981 171.041C345.022 171.65 344.882 172.258 344.579 172.787C344.172 173.496 343.501 174.015 342.713 174.229C341.924 174.443 341.083 174.335 340.374 173.929Z" fill="#27A577"/>
<path d="M341.914 171.665C341.803 171.665 341.696 171.621 341.617 171.542C341.538 171.463 341.494 171.356 341.494 171.245L341.494 115.308C341.499 115.2 341.545 115.098 341.624 115.023C341.702 114.949 341.806 114.907 341.914 114.907C342.02 114.907 342.122 114.95 342.197 115.025C342.272 115.1 342.315 115.202 342.315 115.308L342.315 171.245C342.317 171.299 342.309 171.353 342.29 171.404C342.271 171.455 342.242 171.502 342.205 171.541C342.167 171.58 342.122 171.612 342.072 171.633C342.022 171.654 341.969 171.665 341.914 171.665Z" fill="#27A577"/>
<path d="M338.832 115.309C338.832 114.698 339.013 114.102 339.352 113.595C339.691 113.087 340.172 112.692 340.735 112.458C341.299 112.225 341.919 112.164 342.517 112.283C343.115 112.402 343.664 112.695 344.095 113.127C344.527 113.558 344.82 114.108 344.939 114.707C345.058 115.305 344.997 115.926 344.764 116.489C344.53 117.053 344.135 117.535 343.628 117.874C343.121 118.213 342.525 118.394 341.915 118.394C341.51 118.397 341.108 118.319 340.732 118.165C340.357 118.01 340.016 117.783 339.729 117.496C339.442 117.209 339.215 116.868 339.061 116.492C338.907 116.117 338.83 115.715 338.832 115.309Z" fill="#27A577"/>
<path d="M338.832 171.246C338.832 171.856 339.013 172.453 339.352 172.96C339.691 173.467 340.172 173.863 340.735 174.096C341.299 174.33 341.919 174.391 342.517 174.272C343.115 174.153 343.664 173.859 344.095 173.427C344.527 172.996 344.82 172.446 344.939 171.848C345.058 171.249 344.997 170.629 344.764 170.065C344.53 169.501 344.135 169.019 343.628 168.68C343.121 168.341 342.525 168.16 341.915 168.16C341.098 168.16 340.313 168.485 339.735 169.064C339.157 169.643 338.832 170.428 338.832 171.246Z" fill="#27A577"/>
<path d="M341.915 115.728C341.85 115.748 341.78 115.748 341.715 115.728L293.307 87.6798C293.213 87.6251 293.143 87.5362 293.114 87.4316C293.084 87.327 293.096 87.2149 293.146 87.1188C293.173 87.072 293.209 87.031 293.252 86.9984C293.295 86.9658 293.345 86.9423 293.397 86.9292C293.449 86.9161 293.504 86.9137 293.557 86.9222C293.61 86.9307 293.661 86.9499 293.707 86.9786L342.015 115.007C342.109 115.062 342.178 115.151 342.208 115.255C342.238 115.36 342.226 115.472 342.175 115.568C342.11 115.651 342.018 115.708 341.915 115.728Z" fill="#27A577"/>
<path d="M343.456 112.643C343.985 112.948 344.411 113.403 344.682 113.951C344.952 114.498 345.053 115.114 344.974 115.72C344.894 116.325 344.636 116.893 344.234 117.352C343.831 117.811 343.301 118.14 342.711 118.298C342.122 118.455 341.499 118.434 340.921 118.236C340.343 118.039 339.837 117.675 339.467 117.189C339.096 116.704 338.878 116.119 338.84 115.51C338.802 114.9 338.945 114.293 339.252 113.765C339.662 113.06 340.335 112.545 341.123 112.335C341.91 112.125 342.75 112.236 343.456 112.643Z" fill="#27A577"/>
<path d="M295.048 84.6753C294.52 84.3682 293.914 84.2247 293.304 84.2629C292.695 84.3012 292.111 84.5196 291.626 84.8903C291.141 85.261 290.777 85.7674 290.58 86.3455C290.383 86.9235 290.362 87.547 290.519 88.1372C290.676 88.7273 291.005 89.2575 291.463 89.6605C291.922 90.0635 292.49 90.3213 293.095 90.4011C293.7 90.4809 294.315 90.3793 294.862 90.1089C295.41 89.8386 295.864 89.4118 296.169 88.8826C296.576 88.1755 296.687 87.3358 296.477 86.5473C296.266 85.7588 295.753 85.0856 295.048 84.6753Z" fill="#27A577"/>
<path d="M245.098 115.729C245.026 115.727 244.956 115.708 244.893 115.673C244.83 115.638 244.777 115.589 244.738 115.528C244.687 115.432 244.675 115.32 244.705 115.216C244.735 115.111 244.804 115.022 244.898 114.967L293.306 86.9188C293.352 86.8901 293.403 86.8709 293.456 86.8624C293.51 86.8539 293.564 86.8563 293.616 86.8694C293.669 86.8825 293.718 86.906 293.761 86.9386C293.804 86.9712 293.84 87.0121 293.867 87.059C293.918 87.1551 293.929 87.2672 293.9 87.3718C293.87 87.4764 293.801 87.5653 293.707 87.62L245.298 115.669C245.24 115.709 245.17 115.73 245.098 115.729Z" fill="#27A577"/>
<path d="M291.965 84.6753C292.493 84.3682 293.1 84.2247 293.709 84.2629C294.318 84.3012 294.902 84.5196 295.387 84.8903C295.872 85.261 296.236 85.7674 296.433 86.3455C296.63 86.9235 296.652 87.547 296.494 88.1372C296.337 88.7273 296.008 89.2575 295.55 89.6605C295.091 90.0635 294.523 90.3213 293.918 90.4011C293.313 90.4809 292.698 90.3793 292.151 90.1089C291.604 89.8386 291.149 89.4118 290.844 88.8826C290.437 88.1755 290.326 87.3358 290.536 86.5473C290.747 85.7588 291.26 85.0856 291.965 84.6753Z" fill="#27A577"/>
<path d="M243.558 112.643C243.029 112.948 242.603 113.403 242.332 113.951C242.062 114.499 241.961 115.114 242.04 115.72C242.12 116.325 242.378 116.893 242.781 117.352C243.183 117.811 243.713 118.14 244.303 118.298C244.892 118.455 245.516 118.434 246.093 118.236C246.671 118.039 247.177 117.675 247.547 117.189C247.918 116.704 248.136 116.119 248.174 115.51C248.212 114.9 248.069 114.293 247.762 113.765C247.561 113.414 247.292 113.106 246.972 112.859C246.651 112.612 246.285 112.432 245.894 112.327C245.503 112.223 245.095 112.197 244.694 112.251C244.293 112.306 243.907 112.439 243.558 112.643Z" fill="#27A577"/>
<path d="M245.099 171.665C245.045 171.665 244.991 171.654 244.941 171.633C244.891 171.612 244.846 171.58 244.808 171.541C244.771 171.502 244.742 171.455 244.723 171.404C244.704 171.353 244.696 171.299 244.699 171.245L244.698 115.308C244.698 115.202 244.741 115.1 244.816 115.025C244.891 114.95 244.993 114.907 245.099 114.907C245.207 114.907 245.311 114.949 245.389 115.023C245.468 115.098 245.514 115.2 245.519 115.308L245.519 171.245C245.519 171.3 245.509 171.355 245.487 171.406C245.466 171.457 245.435 171.503 245.396 171.542C245.357 171.581 245.311 171.612 245.26 171.633C245.209 171.654 245.154 171.665 245.099 171.665Z" fill="#27A577"/>
<path d="M241.916 115.308C241.916 114.698 242.097 114.101 242.435 113.594C242.774 113.087 243.256 112.691 243.819 112.458C244.382 112.224 245.002 112.163 245.6 112.282C246.198 112.401 246.748 112.695 247.179 113.127C247.61 113.558 247.904 114.108 248.023 114.706C248.142 115.305 248.08 115.925 247.847 116.489C247.614 117.053 247.219 117.535 246.712 117.874C246.205 118.213 245.609 118.394 244.999 118.394C244.593 118.396 244.191 118.318 243.816 118.164C243.441 118.01 243.1 117.783 242.813 117.496C242.526 117.209 242.299 116.868 242.145 116.492C241.991 116.117 241.913 115.714 241.916 115.308Z" fill="#27A577"/>
<path d="M241.916 171.245C241.916 171.855 242.096 172.452 242.435 172.959C242.774 173.466 243.256 173.862 243.819 174.095C244.382 174.329 245.002 174.39 245.6 174.271C246.198 174.152 246.748 173.858 247.179 173.426C247.61 172.995 247.904 172.445 248.023 171.847C248.142 171.248 248.08 170.628 247.847 170.064C247.614 169.5 247.219 169.018 246.712 168.679C246.205 168.34 245.608 168.159 244.999 168.159C244.181 168.159 243.397 168.484 242.819 169.063C242.24 169.642 241.916 170.427 241.916 171.245Z" fill="#27A577"/>
<path d="M293.506 199.634C293.441 199.654 293.371 199.654 293.306 199.634L244.898 171.586C244.852 171.558 244.812 171.522 244.78 171.479C244.748 171.435 244.725 171.386 244.712 171.334C244.699 171.282 244.696 171.228 244.704 171.175C244.712 171.122 244.73 171.071 244.758 171.025C244.786 170.979 244.822 170.939 244.865 170.907C244.908 170.875 244.957 170.852 245.009 170.839C245.061 170.825 245.115 170.823 245.168 170.831C245.221 170.839 245.272 170.857 245.318 170.885L293.707 198.933C293.801 198.988 293.87 199.077 293.9 199.181C293.929 199.286 293.918 199.398 293.867 199.494C293.821 199.543 293.765 199.582 293.703 199.606C293.64 199.63 293.573 199.64 293.506 199.634Z" fill="#27A577"/>
<path d="M243.577 173.929C243.048 173.626 242.62 173.173 242.348 172.626C242.076 172.08 241.972 171.465 242.049 170.859C242.127 170.254 242.382 169.685 242.783 169.225C243.183 168.764 243.711 168.433 244.3 168.273C244.889 168.113 245.512 168.132 246.09 168.326C246.668 168.521 247.176 168.882 247.548 169.366C247.921 169.849 248.142 170.432 248.184 171.041C248.225 171.65 248.085 172.258 247.781 172.787C247.371 173.492 246.7 174.007 245.913 174.221C245.126 174.434 244.287 174.33 243.577 173.929Z" fill="#27A577"/>
<path d="M290.421 199.189C290.398 200.893 291.76 202.292 293.462 202.315C295.165 202.338 296.563 200.976 296.586 199.272C296.609 197.568 295.248 196.168 293.545 196.145C291.842 196.122 290.444 197.485 290.421 199.189Z" fill="#27A577"/>
<path d="M293.486 199.634C293.417 199.635 293.348 199.617 293.288 199.582C293.228 199.546 293.179 199.495 293.146 199.434C293.117 199.388 293.098 199.337 293.09 199.284C293.081 199.23 293.084 199.176 293.097 199.123C293.11 199.071 293.133 199.022 293.166 198.979C293.198 198.936 293.239 198.9 293.286 198.873L341.694 170.824C341.74 170.795 341.791 170.776 341.844 170.768C341.898 170.759 341.952 170.762 342.004 170.775C342.057 170.788 342.106 170.811 342.149 170.844C342.192 170.876 342.228 170.917 342.255 170.964C342.308 171.058 342.322 171.168 342.296 171.273C342.27 171.377 342.205 171.467 342.115 171.525L293.707 199.574C293.639 199.612 293.564 199.633 293.486 199.634Z" fill="#27A577"/>
<path d="M293.506 199.634C293.434 199.633 293.364 199.614 293.301 199.579C293.238 199.544 293.185 199.494 293.146 199.434C293.095 199.338 293.083 199.226 293.113 199.121C293.143 199.016 293.212 198.927 293.306 198.873L341.714 170.824C341.76 170.795 341.811 170.776 341.864 170.768C341.917 170.759 341.972 170.762 342.024 170.775C342.076 170.788 342.126 170.811 342.169 170.844C342.212 170.877 342.248 170.918 342.274 170.964C342.325 171.061 342.337 171.173 342.307 171.277C342.277 171.382 342.208 171.471 342.114 171.525L293.706 199.574C293.646 199.612 293.577 199.633 293.506 199.634Z" fill="#27A577"/>
<path d="M295.049 201.898C294.521 202.203 293.915 202.345 293.307 202.305C292.699 202.266 292.117 202.047 291.633 201.676C291.149 201.306 290.786 200.8 290.589 200.223C290.393 199.647 290.371 199.024 290.527 198.435C290.683 197.846 291.011 197.316 291.467 196.913C291.924 196.51 292.49 196.251 293.094 196.169C293.697 196.087 294.312 196.186 294.859 196.454C295.407 196.721 295.863 197.145 296.17 197.671C296.374 198.022 296.508 198.41 296.562 198.813C296.617 199.216 296.591 199.625 296.487 200.018C296.383 200.411 296.202 200.779 295.955 201.102C295.708 201.425 295.4 201.695 295.049 201.898Z" fill="#27A577"/>
<path d="M343.456 173.93C344.165 173.521 344.682 172.847 344.894 172.056C345.107 171.265 344.996 170.422 344.587 169.713C344.178 169.004 343.505 168.486 342.714 168.273C341.924 168.061 341.082 168.172 340.373 168.581C339.664 168.99 339.147 169.664 338.935 170.455C338.723 171.246 338.833 172.089 339.242 172.798C339.651 173.508 340.324 174.025 341.115 174.238C341.905 174.45 342.747 174.339 343.456 173.93Z" fill="#27A577"/>
<path d="M245.119 171.665C245.007 171.665 244.9 171.621 244.821 171.542C244.742 171.463 244.698 171.356 244.698 171.245L244.698 115.308C244.698 115.254 244.709 115.2 244.73 115.15C244.752 115.1 244.783 115.055 244.822 115.017C244.862 114.98 244.908 114.951 244.959 114.932C245.01 114.913 245.064 114.904 245.119 114.907C245.225 114.907 245.327 114.949 245.402 115.025C245.477 115.1 245.519 115.202 245.519 115.308L245.519 171.245C245.522 171.299 245.513 171.353 245.494 171.404C245.475 171.455 245.446 171.502 245.409 171.541C245.371 171.58 245.326 171.612 245.277 171.633C245.227 171.654 245.173 171.665 245.119 171.665Z" fill="#27A577"/>
<path d="M242.035 115.308C242.035 114.698 242.216 114.101 242.555 113.594C242.893 113.087 243.375 112.691 243.938 112.458C244.502 112.224 245.121 112.163 245.72 112.282C246.318 112.401 246.867 112.695 247.298 113.127C247.729 113.558 248.023 114.108 248.142 114.706C248.261 115.305 248.2 115.925 247.966 116.489C247.733 117.053 247.338 117.535 246.831 117.874C246.324 118.213 245.728 118.394 245.118 118.394C244.712 118.396 244.31 118.318 243.935 118.164C243.56 118.01 243.219 117.783 242.932 117.496C242.645 117.209 242.418 116.868 242.264 116.492C242.11 116.117 242.032 115.714 242.035 115.308Z" fill="#27A577"/>
<path d="M242.035 171.245C242.035 171.855 242.216 172.452 242.555 172.959C242.893 173.466 243.375 173.862 243.938 174.095C244.502 174.329 245.122 174.39 245.72 174.271C246.318 174.152 246.867 173.858 247.298 173.426C247.729 172.995 248.023 172.445 248.142 171.847C248.261 171.248 248.2 170.628 247.966 170.064C247.733 169.5 247.338 169.018 246.831 168.679C246.324 168.34 245.728 168.159 245.118 168.159C244.3 168.159 243.516 168.484 242.938 169.063C242.36 169.642 242.035 170.427 242.035 171.245Z" fill="#27A577"/>
<path d="M246.639 112.643C247.168 112.948 247.595 113.403 247.865 113.951C248.135 114.499 248.237 115.114 248.157 115.72C248.077 116.325 247.82 116.893 247.417 117.352C247.014 117.811 246.484 118.14 245.895 118.298C245.305 118.455 244.682 118.434 244.104 118.236C243.527 118.039 243.021 117.675 242.65 117.189C242.28 116.704 242.062 116.119 242.023 115.51C241.985 114.9 242.128 114.293 242.435 113.765C242.845 113.06 243.518 112.546 244.306 112.335C245.094 112.125 245.933 112.236 246.639 112.643Z" fill="#27A577"/>
<path d="M198.252 84.6753C197.724 84.3682 197.118 84.2247 196.509 84.2629C195.899 84.3012 195.315 84.5196 194.83 84.8903C194.345 85.261 193.981 85.7674 193.784 86.3455C193.587 86.9235 193.565 87.5471 193.723 88.1372C193.88 88.7273 194.209 89.2575 194.667 89.6605C195.126 90.0635 195.694 90.3213 196.299 90.4011C196.904 90.4809 197.519 90.3793 198.066 90.1089C198.614 89.8386 199.068 89.4118 199.373 88.8826C199.775 88.1743 199.883 87.3363 199.673 86.5494C199.463 85.7624 198.953 85.0893 198.252 84.6753Z" fill="#27A577"/>
<path d="M148.303 115.729C148.231 115.727 148.161 115.708 148.098 115.673C148.035 115.638 147.982 115.589 147.942 115.528C147.89 115.435 147.875 115.324 147.901 115.22C147.927 115.116 147.992 115.025 148.083 114.967L196.491 86.9188C196.584 86.863 196.695 86.8464 196.8 86.8727C196.905 86.899 196.996 86.966 197.051 87.059C197.107 87.152 197.124 87.2634 197.097 87.3686C197.071 87.4738 197.004 87.5642 196.911 87.62L148.503 115.669C148.443 115.707 148.374 115.728 148.303 115.729Z" fill="#27A577"/>
<path d="M195.17 84.6756C195.699 84.3717 196.306 84.2316 196.915 84.2731C197.523 84.3146 198.106 84.5358 198.589 84.9088C199.072 85.2818 199.433 85.7897 199.627 86.3684C199.822 86.9471 199.84 87.5704 199.68 88.1595C199.521 88.7487 199.19 89.2771 198.73 89.6781C198.27 90.079 197.701 90.3343 197.096 90.4117C196.491 90.4892 195.877 90.3853 195.331 90.1131C194.785 89.841 194.332 89.4129 194.029 88.883C193.623 88.1734 193.516 87.3319 193.73 86.5431C193.944 85.7543 194.462 85.0826 195.17 84.6756Z" fill="#27A577"/>
<path d="M146.761 112.643C146.232 112.948 145.806 113.403 145.536 113.951C145.265 114.498 145.164 115.114 145.244 115.72C145.323 116.325 145.581 116.893 145.984 117.352C146.386 117.811 146.916 118.14 147.506 118.298C148.096 118.455 148.719 118.434 149.296 118.236C149.874 118.039 150.38 117.675 150.75 117.189C151.121 116.704 151.339 116.119 151.377 115.51C151.416 114.9 151.272 114.293 150.965 113.765C150.555 113.06 149.883 112.545 149.095 112.335C148.307 112.125 147.468 112.236 146.761 112.643Z" fill="#27A577"/>
<path d="M148.303 171.665C148.191 171.665 148.084 171.621 148.006 171.542C147.927 171.463 147.882 171.356 147.882 171.245L147.882 115.308C147.882 115.254 147.893 115.2 147.915 115.15C147.936 115.1 147.967 115.055 148.007 115.017C148.046 114.98 148.093 114.951 148.143 114.932C148.194 114.913 148.249 114.904 148.303 114.907C148.409 114.907 148.511 114.949 148.586 115.025C148.661 115.1 148.703 115.202 148.703 115.308L148.703 171.245C148.706 171.299 148.698 171.353 148.679 171.404C148.66 171.455 148.631 171.502 148.593 171.541C148.556 171.58 148.511 171.612 148.461 171.633C148.411 171.654 148.357 171.665 148.303 171.665Z" fill="#27A577"/>
<path d="M145.219 115.308C145.219 114.698 145.4 114.101 145.739 113.594C146.078 113.087 146.559 112.691 147.123 112.458C147.686 112.224 148.306 112.163 148.904 112.282C149.502 112.401 150.051 112.695 150.482 113.127C150.914 113.558 151.207 114.108 151.326 114.706C151.445 115.305 151.384 115.925 151.151 116.489C150.917 117.053 150.522 117.535 150.015 117.874C149.508 118.213 148.912 118.394 148.302 118.394C147.897 118.396 147.495 118.318 147.119 118.164C146.744 118.01 146.403 117.783 146.116 117.496C145.83 117.209 145.603 116.868 145.449 116.492C145.295 116.117 145.217 115.714 145.219 115.308Z" fill="#27A577"/>
<path d="M145.219 171.245C145.219 171.855 145.4 172.452 145.739 172.959C146.078 173.466 146.559 173.862 147.123 174.095C147.686 174.329 148.306 174.39 148.904 174.271C149.502 174.152 150.051 173.858 150.482 173.426C150.914 172.995 151.207 172.445 151.326 171.847C151.445 171.248 151.384 170.628 151.151 170.064C150.917 169.5 150.522 169.018 150.015 168.679C149.508 168.34 148.912 168.159 148.302 168.159C147.485 168.159 146.701 168.484 146.122 169.063C145.544 169.642 145.219 170.426 145.219 171.245Z" fill="#27A577"/>
<path d="M148.302 171.665C148.248 171.665 148.194 171.654 148.144 171.633C148.094 171.612 148.049 171.58 148.012 171.541C147.974 171.502 147.945 171.455 147.926 171.404C147.907 171.353 147.899 171.299 147.902 171.245L147.902 115.308C147.902 115.202 147.944 115.1 148.019 115.025C148.094 114.949 148.196 114.907 148.302 114.907C148.356 114.904 148.411 114.913 148.462 114.932C148.512 114.951 148.559 114.98 148.598 115.017C148.638 115.055 148.669 115.1 148.69 115.15C148.712 115.2 148.723 115.254 148.723 115.308L148.723 171.245C148.723 171.356 148.678 171.463 148.599 171.542C148.521 171.621 148.414 171.665 148.302 171.665Z" fill="#27A577"/>
<path d="M145.219 115.308C145.219 114.698 145.4 114.101 145.739 113.594C146.078 113.087 146.559 112.691 147.123 112.458C147.686 112.224 148.306 112.163 148.904 112.282C149.502 112.401 150.051 112.695 150.482 113.127C150.914 113.558 151.207 114.108 151.326 114.706C151.445 115.305 151.384 115.925 151.151 116.489C150.917 117.053 150.522 117.535 150.015 117.874C149.508 118.213 148.912 118.394 148.302 118.394C147.897 118.396 147.495 118.318 147.119 118.164C146.744 118.01 146.403 117.783 146.116 117.496C145.83 117.209 145.603 116.868 145.449 116.492C145.295 116.117 145.217 115.714 145.219 115.308Z" fill="#27A577"/>
<path d="M145.219 171.245C145.219 171.855 145.4 172.452 145.739 172.959C146.078 173.466 146.559 173.862 147.123 174.095C147.686 174.329 148.306 174.39 148.904 174.271C149.502 174.152 150.051 173.858 150.482 173.426C150.914 172.995 151.207 172.445 151.326 171.847C151.445 171.248 151.384 170.628 151.151 170.064C150.917 169.5 150.522 169.018 150.015 168.679C149.508 168.34 148.912 168.159 148.302 168.159C147.485 168.159 146.701 168.484 146.122 169.063C145.544 169.642 145.219 170.426 145.219 171.245Z" fill="#27A577"/>
<path d="M148.302 115.729C148.236 115.746 148.167 115.746 148.101 115.729L99.6935 87.6801C99.6475 87.6525 99.6073 87.6161 99.5754 87.5729C99.5435 87.5298 99.5203 87.4808 99.5073 87.4287C99.4943 87.3766 99.4917 87.3225 99.4996 87.2694C99.5075 87.2163 99.5257 87.1652 99.5533 87.1191C99.5809 87.0731 99.6173 87.033 99.6604 87.001C99.7035 86.969 99.7525 86.9459 99.8046 86.9328C99.8566 86.9198 99.9107 86.9172 99.9638 86.9251C100.017 86.933 100.068 86.9513 100.114 86.9789L148.502 115.027C148.55 115.052 148.593 115.087 148.628 115.13C148.662 115.172 148.688 115.221 148.703 115.273C148.718 115.326 148.722 115.381 148.715 115.435C148.708 115.489 148.69 115.541 148.662 115.588C148.617 115.638 148.56 115.676 148.498 115.7C148.436 115.724 148.368 115.734 148.302 115.729Z" fill="#27A577"/>
<path d="M149.825 112.643C150.354 112.948 150.78 113.403 151.05 113.951C151.32 114.498 151.422 115.114 151.342 115.72C151.263 116.325 151.005 116.893 150.602 117.352C150.2 117.811 149.67 118.14 149.08 118.298C148.49 118.455 147.867 118.434 147.29 118.236C146.712 118.039 146.206 117.675 145.836 117.189C145.465 116.704 145.247 116.119 145.209 115.51C145.17 114.9 145.314 114.293 145.621 113.765C146.031 113.06 146.703 112.545 147.491 112.335C148.279 112.125 149.118 112.236 149.825 112.643Z" fill="#27A577"/>
<path d="M101.436 84.6749C100.907 84.3709 100.3 84.2309 99.6913 84.2724C99.0827 84.3139 98.5 84.5351 98.0171 84.9081C97.5342 85.2811 97.1727 85.789 96.9784 86.3677C96.784 86.9463 96.7656 87.5697 96.9254 88.1588C97.0852 88.748 97.4161 89.2764 97.8761 89.6773C98.3361 90.0782 98.9046 90.3336 99.5097 90.411C100.115 90.4885 100.729 90.3845 101.275 90.1124C101.821 89.8403 102.274 89.4122 102.577 88.8822C102.983 88.1727 103.09 87.3312 102.876 86.5424C102.662 85.7535 102.144 85.0819 101.436 84.6749Z" fill="#27A577"/>
<path d="M290.403 31.4228C290.399 30.8117 290.577 30.2133 290.913 29.7033C291.249 29.1933 291.729 28.7947 292.292 28.5581C292.855 28.3215 293.476 28.2575 294.075 28.3743C294.675 28.4911 295.226 28.7833 295.659 29.214C296.092 29.6447 296.388 30.1944 296.508 30.7934C296.629 31.3925 296.569 32.0139 296.336 32.5788C296.104 33.1438 295.709 33.6268 295.201 33.9667C294.694 34.3066 294.097 34.4881 293.486 34.4881C292.672 34.4881 291.891 34.1658 291.313 33.5916C290.736 33.0173 290.408 32.2376 290.403 31.4228Z" fill="#27A577"/>
<path d="M290.424 87.3398C290.42 87.9517 290.598 88.551 290.935 89.0614C291.272 89.5719 291.754 89.9704 292.318 90.2064C292.882 90.4424 293.504 90.5053 294.104 90.3869C294.704 90.2684 295.255 89.9742 295.687 89.5415C296.119 89.1088 296.413 88.5572 296.532 87.9568C296.65 87.3564 296.587 86.7345 296.352 86.1699C296.116 85.6053 295.717 85.1236 295.207 84.7861C294.697 84.4486 294.099 84.2705 293.487 84.2745C292.675 84.2745 291.896 84.5974 291.321 85.1723C290.747 85.7472 290.424 86.5269 290.424 87.3398Z" fill="#27A577"/>
<path d="M341.895 115.729C341.83 115.746 341.761 115.746 341.695 115.729L293.307 87.6801C293.213 87.6255 293.144 87.5366 293.114 87.432C293.084 87.3274 293.096 87.2153 293.147 87.1192C293.174 87.0723 293.21 87.0313 293.253 86.9987C293.296 86.9661 293.345 86.9426 293.397 86.9295C293.45 86.9164 293.504 86.914 293.557 86.9225C293.611 86.931 293.662 86.9502 293.707 86.979L342.015 115.007C342.106 115.065 342.171 115.156 342.197 115.26C342.223 115.364 342.208 115.475 342.155 115.568C342.091 115.651 341.998 115.708 341.895 115.729Z" fill="#27A577"/>
<path d="M291.966 90.0247C291.436 89.7216 291.009 89.2682 290.737 88.7217C290.465 88.1753 290.361 87.5604 290.438 86.9549C290.516 86.3493 290.771 85.7804 291.172 85.32C291.572 84.8597 292.1 84.5286 292.689 84.3687C293.278 84.2088 293.9 84.2272 294.479 84.4217C295.057 84.6162 295.564 84.9779 295.937 85.4612C296.31 85.9445 296.531 86.5275 296.572 87.1366C296.614 87.7456 296.474 88.3533 296.17 88.8827C295.971 89.2356 295.703 89.5455 295.383 89.7942C295.063 90.043 294.697 90.2258 294.306 90.3321C293.915 90.4383 293.507 90.4658 293.105 90.4131C292.704 90.3603 292.316 90.2283 291.966 90.0247Z" fill="#27A577"/>
<path d="M340.353 117.992C340.881 118.297 341.487 118.439 342.095 118.399C342.703 118.36 343.285 118.141 343.769 117.77C344.253 117.4 344.616 116.894 344.813 116.317C345.009 115.74 345.031 115.118 344.875 114.529C344.719 113.94 344.391 113.41 343.935 113.007C343.478 112.604 342.912 112.345 342.308 112.263C341.705 112.181 341.09 112.28 340.543 112.548C339.995 112.815 339.539 113.239 339.232 113.765C338.824 114.475 338.713 115.318 338.923 116.11C339.133 116.902 339.647 117.578 340.353 117.992Z" fill="#27A577"/>
<path d="M343.437 117.993C342.908 118.295 342.301 118.433 341.694 118.39C341.087 118.348 340.506 118.126 340.024 117.753C339.542 117.38 339.182 116.873 338.988 116.296C338.794 115.718 338.775 115.096 338.934 114.508C339.093 113.92 339.422 113.392 339.88 112.991C340.338 112.589 340.905 112.333 341.508 112.254C342.112 112.174 342.726 112.275 343.272 112.545C343.818 112.814 344.273 113.239 344.578 113.766C344.782 114.118 344.914 114.507 344.967 114.911C345.02 115.314 344.993 115.724 344.886 116.117C344.78 116.51 344.598 116.878 344.349 117.2C344.1 117.522 343.79 117.792 343.437 117.993Z" fill="#27A577"/>
<path d="M290.424 31.4228C290.42 30.8117 290.597 30.2133 290.934 29.7033C291.27 29.1933 291.75 28.7947 292.313 28.5581C292.876 28.3215 293.497 28.2575 294.096 28.3743C294.696 28.4911 295.247 28.7833 295.68 29.214C296.113 29.6447 296.409 30.1944 296.529 30.7934C296.65 31.3925 296.59 32.0139 296.357 32.5788C296.125 33.1438 295.729 33.6268 295.222 33.9667C294.715 34.3066 294.118 34.4881 293.507 34.4881C292.693 34.4881 291.912 34.1658 291.334 33.5916C290.756 33.0173 290.429 32.2376 290.424 31.4228Z" fill="#27A577"/>
<path d="M290.424 87.3398C290.42 87.9509 290.597 88.5493 290.934 89.0593C291.27 89.5693 291.75 89.9679 292.313 90.2045C292.876 90.4411 293.497 90.5051 294.096 90.3883C294.696 90.2715 295.247 89.9793 295.68 89.5486C296.113 89.1179 296.409 88.5682 296.529 87.9692C296.65 87.3702 296.59 86.7488 296.357 86.1838C296.125 85.6189 295.729 85.1358 295.222 84.7959C294.715 84.456 294.118 84.2745 293.507 84.2745C292.693 84.2745 291.912 84.5968 291.334 85.1711C290.756 85.7454 290.429 86.525 290.424 87.3398Z" fill="#27A577"/>
<path d="M293.506 31.8239C293.441 31.8439 293.371 31.8439 293.306 31.8239L244.898 3.77529C244.805 3.72216 244.737 3.63424 244.709 3.53091C244.681 3.42759 244.695 3.31728 244.748 3.22429C244.801 3.1313 244.889 3.06324 244.992 3.03506C245.095 3.00688 245.206 3.02093 245.298 3.07407L293.707 31.1226C293.801 31.1773 293.87 31.2662 293.9 31.3708C293.929 31.4754 293.918 31.5875 293.867 31.6836C293.821 31.7329 293.765 31.7711 293.703 31.7954C293.64 31.8197 293.573 31.8295 293.506 31.8239Z" fill="#27A577"/>
<path d="M295.048 28.7381C295.578 29.0411 296.005 29.4945 296.277 30.041C296.549 30.5874 296.653 31.2023 296.576 31.8079C296.498 32.4134 296.243 32.9823 295.843 33.4427C295.442 33.903 294.914 34.2341 294.325 34.394C293.736 34.5539 293.114 34.5355 292.535 34.341C291.957 34.1465 291.45 33.7848 291.077 33.3015C290.704 32.8182 290.483 32.2352 290.442 31.6261C290.4 31.0171 290.54 30.4095 290.844 29.8801C291.251 29.1712 291.922 28.6529 292.71 28.4388C293.498 28.2247 294.339 28.3323 295.048 28.7381Z" fill="#27A577"/>
<path d="M246.64 0.81001C246.112 0.505212 245.506 0.363619 244.898 0.403124C244.291 0.442629 243.708 0.661491 243.224 1.03201C242.741 1.40253 242.377 1.90811 242.181 2.485C241.984 3.06188 241.962 3.68421 242.118 4.2734C242.275 4.86259 242.602 5.39225 243.059 5.79553C243.515 6.19882 244.081 6.45764 244.685 6.53936C245.289 6.62108 245.903 6.52203 246.45 6.25469C246.998 5.98736 247.454 5.56368 247.761 5.03722C247.966 4.68624 248.099 4.29828 248.153 3.89555C248.208 3.49283 248.182 3.08329 248.078 2.69049C247.974 2.29769 247.793 1.92937 247.546 1.60666C247.3 1.28395 246.991 1.01321 246.64 0.81001Z" fill="#27A577"/>
<path d="M196.69 31.8236C196.618 31.8221 196.548 31.8031 196.485 31.7682C196.422 31.7333 196.369 31.6835 196.33 31.6232C196.279 31.5271 196.267 31.415 196.297 31.3104C196.327 31.2058 196.396 31.1169 196.49 31.0623L244.898 3.01378C244.944 2.98747 244.995 2.97046 245.047 2.96377C245.1 2.95708 245.153 2.96082 245.204 2.97477C245.255 2.98873 245.303 3.01262 245.345 3.04508C245.387 3.07755 245.422 3.11796 245.448 3.164C245.475 3.21004 245.492 3.26083 245.498 3.31343C245.505 3.36604 245.501 3.41946 245.487 3.47062C245.473 3.52179 245.45 3.56969 245.417 3.61162C245.385 3.65354 245.344 3.68869 245.298 3.715L196.89 31.7635C196.832 31.804 196.762 31.8251 196.69 31.8236Z" fill="#27A577"/>
<path d="M243.557 0.81001C244.084 0.505213 244.69 0.363619 245.298 0.403124C245.906 0.442629 246.488 0.661491 246.972 1.03201C247.456 1.40253 247.819 1.90811 248.016 2.485C248.213 3.06188 248.234 3.68421 248.078 4.2734C247.922 4.86259 247.595 5.39225 247.138 5.79553C246.681 6.19882 246.115 6.45764 245.512 6.53936C244.908 6.62108 244.294 6.52203 243.746 6.25469C243.199 5.98736 242.743 5.56368 242.436 5.03722C242.231 4.68624 242.097 4.29828 242.043 3.89555C241.989 3.49283 242.014 3.08329 242.118 2.69049C242.222 2.29769 242.403 1.92937 242.65 1.60666C242.897 1.28395 243.205 1.01321 243.557 0.81001Z" fill="#27A577"/>
<path d="M195.149 28.7386C194.798 28.9412 194.49 29.2109 194.243 29.5325C193.996 29.8541 193.815 30.2212 193.71 30.6128C193.605 31.0044 193.578 31.4129 193.631 31.8149C193.684 32.2169 193.815 32.6047 194.017 32.9559C194.22 33.3071 194.489 33.615 194.811 33.862C195.132 34.109 195.499 34.2902 195.89 34.3953C196.282 34.5004 196.69 34.5273 197.092 34.4746C197.493 34.4218 197.881 34.2904 198.232 34.0878C198.941 33.6786 199.458 33.0045 199.67 32.2136C199.882 31.4227 199.772 30.5799 199.363 29.8705C198.954 29.1612 198.28 28.6434 197.49 28.4311C196.7 28.2188 195.857 28.3294 195.149 28.7386Z" fill="#27A577"/>
<path d="M193.607 31.4228C193.603 30.8118 193.781 30.2133 194.117 29.7033C194.454 29.1933 194.934 28.7947 195.497 28.5581C196.06 28.3215 196.68 28.2575 197.28 28.3743C197.879 28.4911 198.43 28.7833 198.863 29.214C199.297 29.6447 199.592 30.1944 199.713 30.7934C199.833 31.3925 199.773 32.0139 199.541 32.5788C199.308 33.1437 198.913 33.6268 198.405 33.9667C197.898 34.3066 197.301 34.4881 196.69 34.4881C195.876 34.4881 195.095 34.1658 194.517 33.5915C193.94 33.0173 193.613 32.2376 193.607 31.4228Z" fill="#27A577"/>
<path d="M193.607 87.3398C193.603 87.9509 193.781 88.5493 194.117 89.0593C194.454 89.5694 194.934 89.9679 195.497 90.2045C196.06 90.4411 196.68 90.5051 197.28 90.3883C197.879 90.2715 198.43 89.9793 198.863 89.5486C199.297 89.1179 199.592 88.5682 199.713 87.9692C199.833 87.3702 199.773 86.7488 199.541 86.1838C199.308 85.6189 198.913 85.1358 198.405 84.7959C197.898 84.456 197.301 84.2745 196.69 84.2745C195.876 84.2745 195.095 84.5968 194.517 85.1711C193.94 85.7454 193.613 86.525 193.607 87.3398Z" fill="#27A577"/>
<path d="M195.168 90.0243C194.639 89.7213 194.211 89.2678 193.939 88.7214C193.667 88.175 193.563 87.5601 193.641 86.9546C193.718 86.349 193.973 85.7801 194.374 85.3198C194.774 84.8594 195.302 84.5283 195.891 84.3684C196.48 84.2085 197.103 84.227 197.681 84.4214C198.259 84.6159 198.767 84.9777 199.139 85.461C199.512 85.9442 199.733 86.5272 199.775 87.1363C199.816 87.7453 199.676 88.3529 199.372 88.8823C198.966 89.5911 198.294 90.1095 197.506 90.3236C196.718 90.5377 195.877 90.4301 195.168 90.0243Z" fill="#27A577"/>
<path d="M243.557 117.992C244.084 118.297 244.69 118.439 245.298 118.399C245.906 118.36 246.488 118.141 246.972 117.77C247.456 117.4 247.819 116.894 248.016 116.317C248.213 115.74 248.234 115.118 248.078 114.529C247.922 113.94 247.595 113.41 247.138 113.007C246.681 112.604 246.115 112.345 245.512 112.263C244.908 112.181 244.294 112.28 243.746 112.548C243.199 112.815 242.743 113.239 242.436 113.765C242.231 114.116 242.097 114.504 242.043 114.907C241.989 115.31 242.014 115.719 242.118 116.112C242.222 116.505 242.403 116.873 242.65 117.196C242.897 117.518 243.205 117.789 243.557 117.992Z" fill="#27A577"/>
<path d="M245.098 115.729C245.026 115.727 244.956 115.708 244.893 115.673C244.83 115.638 244.777 115.589 244.738 115.528C244.687 115.432 244.675 115.32 244.705 115.216C244.735 115.111 244.804 115.022 244.898 114.967L293.306 86.9188C293.352 86.8901 293.403 86.8709 293.456 86.8624C293.51 86.8539 293.564 86.8563 293.616 86.8694C293.669 86.8825 293.718 86.906 293.761 86.9386C293.804 86.9712 293.84 87.0121 293.867 87.059C293.918 87.1551 293.929 87.2672 293.9 87.3718C293.87 87.4764 293.801 87.5653 293.707 87.62L245.298 115.669C245.24 115.709 245.17 115.73 245.098 115.729Z" fill="#27A577"/>
<path d="M246.64 117.992C246.112 118.297 245.506 118.439 244.898 118.399C244.291 118.36 243.708 118.141 243.224 117.77C242.741 117.4 242.377 116.894 242.181 116.317C241.984 115.74 241.962 115.118 242.118 114.529C242.275 113.94 242.602 113.41 243.059 113.007C243.515 112.604 244.081 112.345 244.685 112.263C245.289 112.181 245.903 112.28 246.45 112.548C246.998 112.815 247.454 113.239 247.761 113.765C247.966 114.116 248.099 114.504 248.153 114.907C248.208 115.31 248.182 115.719 248.078 116.112C247.974 116.505 247.793 116.873 247.546 117.196C247.3 117.518 246.991 117.789 246.64 117.992Z" fill="#27A577"/>
<path d="M295.048 90.0247C295.578 89.7216 296.005 89.2682 296.277 88.7217C296.549 88.1753 296.653 87.5604 296.576 86.9549C296.498 86.3493 296.243 85.7804 295.843 85.32C295.442 84.8597 294.914 84.5286 294.325 84.3687C293.736 84.2088 293.114 84.2272 292.535 84.4217C291.957 84.6162 291.45 84.9779 291.077 85.4612C290.704 85.9445 290.483 86.5275 290.442 87.1366C290.4 87.7456 290.54 88.3533 290.844 88.8827C291.043 89.2356 291.311 89.5455 291.631 89.7942C291.951 90.043 292.317 90.2258 292.708 90.3321C293.099 90.4383 293.507 90.4658 293.909 90.4131C294.31 90.3603 294.698 90.2283 295.048 90.0247Z" fill="#27A577"/>
<path d="M193.628 31.4228C193.624 30.8118 193.802 30.2133 194.138 29.7033C194.475 29.1933 194.955 28.7947 195.518 28.5581C196.081 28.3215 196.701 28.2575 197.3 28.3743C197.9 28.4911 198.451 28.7833 198.884 29.214C199.317 29.6447 199.613 30.1944 199.734 30.7934C199.854 31.3925 199.794 32.0139 199.562 32.5788C199.329 33.1437 198.934 33.6268 198.426 33.9667C197.919 34.3066 197.322 34.4881 196.711 34.4881C195.897 34.4881 195.116 34.1658 194.538 33.5915C193.961 33.0173 193.634 32.2376 193.628 31.4228Z" fill="#27A577"/>
<path d="M193.628 87.3398C193.624 87.9509 193.802 88.5493 194.138 89.0593C194.475 89.5694 194.955 89.9679 195.518 90.2045C196.081 90.4411 196.701 90.5051 197.3 90.3883C197.9 90.2715 198.451 89.9793 198.884 89.5486C199.317 89.1179 199.613 88.5682 199.734 87.9692C199.854 87.3702 199.794 86.7488 199.562 86.1838C199.329 85.6189 198.934 85.1358 198.426 84.7959C197.919 84.456 197.322 84.2745 196.711 84.2745C195.897 84.2745 195.116 84.5968 194.538 85.1711C193.961 85.7454 193.634 86.525 193.628 87.3398Z" fill="#27A577"/>
<path d="M196.711 31.8236C196.639 31.8414 196.563 31.8414 196.491 31.8236L148.083 3.77501C147.992 3.71714 147.927 3.62677 147.901 3.52244C147.875 3.41811 147.89 3.30776 147.942 3.21404C148 3.1234 148.091 3.05835 148.195 3.03227C148.299 3.00619 148.409 3.02104 148.503 3.07379L196.911 31.1223C196.958 31.1492 196.999 31.1852 197.032 31.2282C197.064 31.2713 197.088 31.3205 197.101 31.3729C197.114 31.4253 197.116 31.4798 197.108 31.5331C197.099 31.5865 197.08 31.6376 197.051 31.6833C197.011 31.7336 196.959 31.7728 196.899 31.7973C196.84 31.8219 196.775 31.8309 196.711 31.8236Z" fill="#27A577"/>
<path d="M198.253 28.7385C198.779 29.044 199.204 29.4987 199.473 30.0453C199.742 30.5919 199.843 31.206 199.764 31.8101C199.685 32.4142 199.428 32.9812 199.027 33.4398C198.626 33.8983 198.099 34.2278 197.511 34.3867C196.923 34.5456 196.302 34.5268 195.725 34.3327C195.147 34.1385 194.641 33.7777 194.268 33.2957C193.896 32.8138 193.674 32.2322 193.631 31.6245C193.589 31.0167 193.727 30.4099 194.028 29.8805C194.443 29.1743 195.117 28.6591 195.907 28.4455C196.697 28.2319 197.539 28.3372 198.253 28.7385Z" fill="#27A577"/>
<path d="M149.823 0.809952C149.295 0.505153 148.689 0.363558 148.082 0.403063C147.474 0.442569 146.891 0.661433 146.408 1.03195C145.924 1.40247 145.561 1.90806 145.364 2.48496C145.167 3.06185 145.145 3.68418 145.302 4.27338C145.458 4.86257 145.785 5.39223 146.242 5.79553C146.699 6.19882 147.264 6.45764 147.868 6.53936C148.472 6.62108 149.086 6.52203 149.634 6.25469C150.181 5.98735 150.637 5.56367 150.944 5.0372C151.352 4.32706 151.463 3.48437 151.253 2.69259C151.043 1.90081 150.529 1.22413 149.823 0.809952Z" fill="#27A577"/>
<path d="M99.894 31.8235C99.8222 31.8221 99.7518 31.803 99.689 31.7681C99.6261 31.7332 99.5728 31.6834 99.5337 31.6231C99.4809 31.5294 99.4661 31.4191 99.4922 31.3148C99.5182 31.2104 99.5832 31.12 99.6738 31.0622L148.082 3.01371C148.175 2.96096 148.286 2.94611 148.39 2.97219C148.494 2.99827 148.585 3.06332 148.642 3.15397C148.671 3.1997 148.69 3.25073 148.699 3.30407C148.707 3.3574 148.705 3.41192 148.692 3.46432C148.679 3.51671 148.655 3.56591 148.623 3.60897C148.59 3.65204 148.549 3.6881 148.502 3.71493L100.094 31.7634C100.034 31.8018 99.965 31.8226 99.894 31.8235Z" fill="#27A577"/>
<path d="M146.761 0.810148C147.29 0.508467 147.897 0.370257 148.504 0.412974C149.111 0.455691 149.692 0.677429 150.174 1.05019C150.656 1.42295 151.016 1.93002 151.21 2.50755C151.404 3.08508 151.423 3.70718 151.264 4.29538C151.105 4.88358 150.776 5.41158 150.318 5.81278C149.86 6.21399 149.293 6.47047 148.689 6.54984C148.086 6.62921 147.472 6.52789 146.926 6.25875C146.38 5.98961 145.925 5.56465 145.62 5.03745C145.416 4.68527 145.284 4.2962 145.231 3.89264C145.178 3.48909 145.205 3.07902 145.311 2.68608C145.417 2.29314 145.6 1.92511 145.849 1.60315C146.098 1.28119 146.408 1.01168 146.761 0.810148Z" fill="#27A577"/>
<path d="M98.3536 28.7381C97.824 29.0412 97.3962 29.4946 97.1243 30.0411C96.8524 30.5875 96.7486 31.2024 96.8259 31.8079C96.9033 32.4134 97.1585 32.9823 97.5591 33.4427C97.9597 33.903 98.4878 34.2341 99.0765 34.394C99.6652 34.554 100.288 34.5355 100.866 34.341C101.444 34.1466 101.952 33.7848 102.325 33.3015C102.697 32.8183 102.919 32.2352 102.96 31.6262C103.001 31.0172 102.861 30.4095 102.558 29.8801C102.147 29.1753 101.476 28.6604 100.69 28.4467C99.9029 28.2331 99.0637 28.3377 98.3536 28.7381Z" fill="#27A577"/>
<path d="M96.8116 31.4228C96.8076 30.8118 96.9851 30.2133 97.3214 29.7033C97.6578 29.1933 98.1379 28.7947 98.7009 28.5581C99.2639 28.3215 99.8844 28.2575 100.484 28.3743C101.083 28.4911 101.634 28.7834 102.068 29.214C102.501 29.6447 102.796 30.1944 102.917 30.7934C103.038 31.3925 102.978 32.0139 102.745 32.5788C102.512 33.1438 102.117 33.6268 101.61 33.9667C101.102 34.3066 100.505 34.4881 99.8946 34.4881C99.0804 34.4882 98.2993 34.1659 97.7216 33.5916C97.144 33.0173 96.8169 32.2376 96.8116 31.4228Z" fill="#27A577"/>
<path d="M96.8117 87.3398C96.8077 87.9509 96.9852 88.5493 97.3215 89.0593C97.6579 89.5693 98.138 89.9679 98.7009 90.2045C99.2639 90.4411 99.8845 90.5051 100.484 90.3883C101.083 90.2715 101.634 89.9793 102.068 89.5486C102.501 89.1179 102.796 88.5682 102.917 87.9692C103.038 87.3701 102.978 86.7487 102.745 86.1838C102.512 85.6189 102.117 85.1358 101.61 84.7959C101.102 84.456 100.505 84.2745 99.8947 84.2745C99.0805 84.2745 98.2994 84.5968 97.7217 85.1711C97.1441 85.7453 96.817 86.525 96.8117 87.3398Z" fill="#27A577"/>
<path d="M148.302 115.729C148.23 115.746 148.154 115.746 148.082 115.729L99.6937 87.6801C99.6477 87.6525 99.6076 87.6161 99.5756 87.5729C99.5437 87.5298 99.5206 87.4808 99.5075 87.4287C99.4945 87.3766 99.4919 87.3225 99.4998 87.2694C99.5077 87.2163 99.526 87.1652 99.5536 87.1191C99.5812 87.0731 99.6176 87.033 99.6607 87.001C99.7038 86.969 99.7528 86.9459 99.8048 86.9328C99.8569 86.9198 99.911 86.9172 99.9641 86.9251C100.017 86.933 100.068 86.9513 100.114 86.9789L148.502 115.027C148.549 115.054 148.59 115.09 148.623 115.133C148.655 115.176 148.679 115.226 148.692 115.278C148.705 115.33 148.707 115.385 148.699 115.438C148.69 115.492 148.671 115.543 148.642 115.588C148.602 115.639 148.55 115.678 148.49 115.702C148.431 115.727 148.366 115.736 148.302 115.729Z" fill="#27A577"/>
<path d="M98.3531 90.0242C97.8263 89.7187 97.4017 89.264 97.1328 88.7174C96.8639 88.1708 96.7626 87.5567 96.8419 86.9526C96.9213 86.3485 97.1775 85.7814 97.5784 85.3229C97.9793 84.8643 98.5069 84.5348 99.0947 84.3759C99.6825 84.217 100.304 84.2358 100.881 84.43C101.458 84.6241 101.965 84.985 102.338 85.4669C102.71 85.9489 102.932 86.5304 102.974 87.1382C103.017 87.746 102.879 88.3528 102.577 88.8822C102.376 89.2358 102.107 89.5461 101.785 89.7951C101.463 90.0441 101.095 90.227 100.703 90.3331C100.31 90.4393 99.9004 90.4666 99.4971 90.4136C99.0939 90.3605 98.7051 90.2282 98.3531 90.0242Z" fill="#27A577"/>
<path d="M146.761 117.993C147.29 118.295 147.897 118.433 148.504 118.39C149.111 118.347 149.692 118.126 150.174 117.753C150.656 117.38 151.016 116.873 151.21 116.295C151.404 115.718 151.423 115.096 151.264 114.508C151.105 113.919 150.776 113.391 150.318 112.99C149.86 112.589 149.293 112.333 148.689 112.253C148.086 112.174 147.472 112.275 146.926 112.544C146.38 112.813 145.925 113.238 145.62 113.766C145.416 114.118 145.284 114.507 145.231 114.91C145.178 115.314 145.205 115.724 145.311 116.117C145.417 116.51 145.6 116.878 145.849 117.2C146.098 117.522 146.408 117.791 146.761 117.993Z" fill="#27A577"/>
<path d="M148.303 115.729C148.231 115.727 148.161 115.708 148.098 115.673C148.035 115.638 147.982 115.589 147.942 115.528C147.89 115.435 147.875 115.324 147.901 115.22C147.927 115.116 147.992 115.025 148.083 114.967L196.491 86.9188C196.584 86.863 196.695 86.8464 196.8 86.8727C196.905 86.899 196.996 86.966 197.051 87.059C197.107 87.152 197.124 87.2634 197.097 87.3686C197.071 87.4738 197.004 87.5642 196.911 87.62L148.503 115.669C148.443 115.707 148.374 115.728 148.303 115.729Z" fill="#27A577"/>
<path d="M149.823 117.992C149.295 118.297 148.689 118.439 148.082 118.399C147.474 118.36 146.891 118.141 146.408 117.77C145.924 117.4 145.561 116.894 145.364 116.317C145.167 115.74 145.145 115.118 145.302 114.529C145.458 113.94 145.785 113.41 146.242 113.007C146.699 112.604 147.264 112.345 147.868 112.263C148.472 112.181 149.086 112.28 149.634 112.548C150.181 112.815 150.637 113.239 150.944 113.765C151.352 114.475 151.463 115.318 151.253 116.11C151.043 116.902 150.529 117.578 149.823 117.992Z" fill="#27A577"/>
<path d="M198.253 90.0243C198.779 89.7188 199.204 89.2641 199.473 88.7175C199.742 88.1709 199.843 87.5568 199.764 86.9527C199.685 86.3486 199.428 85.7815 199.027 85.323C198.627 84.8644 198.099 84.5349 197.511 84.376C196.923 84.2171 196.302 84.2359 195.725 84.4301C195.148 84.6242 194.641 84.9851 194.268 85.467C193.896 85.949 193.674 86.5305 193.632 87.1383C193.589 87.746 193.727 88.3529 194.028 88.8823C194.439 89.5924 195.114 90.1112 195.905 90.3252C196.697 90.5392 197.541 90.431 198.253 90.0243Z" fill="#27A577"/>
<path d="M96.8116 31.4228C96.8076 30.8118 96.9851 30.2133 97.3214 29.7033C97.6578 29.1933 98.1379 28.7947 98.7009 28.5581C99.2639 28.3215 99.8844 28.2575 100.484 28.3743C101.083 28.4911 101.634 28.7834 102.068 29.214C102.501 29.6447 102.796 30.1944 102.917 30.7934C103.038 31.3925 102.978 32.0139 102.745 32.5788C102.512 33.1438 102.117 33.6268 101.61 33.9667C101.102 34.3066 100.505 34.4881 99.8946 34.4881C99.0804 34.4882 98.2993 34.1659 97.7216 33.5916C97.144 33.0173 96.8169 32.2376 96.8116 31.4228Z" fill="#27A577"/>
<path d="M96.8117 87.3398C96.8077 87.9509 96.9852 88.5493 97.3215 89.0593C97.6579 89.5693 98.138 89.9679 98.7009 90.2045C99.2639 90.4411 99.8845 90.5051 100.484 90.3883C101.083 90.2715 101.634 89.9793 102.068 89.5486C102.501 89.1179 102.796 88.5682 102.917 87.9692C103.038 87.3701 102.978 86.7487 102.745 86.1838C102.512 85.6189 102.117 85.1358 101.61 84.7959C101.102 84.456 100.505 84.2745 99.8947 84.2745C99.0805 84.2745 98.2994 84.5968 97.7217 85.1711C97.1441 85.7453 96.817 86.525 96.8117 87.3398Z" fill="#27A577"/>
<path d="M99.8941 31.8235C99.8285 31.8414 99.7594 31.8414 99.6939 31.8235L51.286 3.77499C51.2391 3.74817 51.1982 3.7121 51.1656 3.66904C51.133 3.62597 51.1095 3.57678 51.0964 3.52438C51.0833 3.47198 51.081 3.41747 51.0895 3.36413C51.098 3.31079 51.1171 3.25976 51.1459 3.21403C51.2037 3.12339 51.294 3.05834 51.3982 3.03226C51.5025 3.00617 51.6128 3.02103 51.7064 3.07377L100.114 31.1223C100.205 31.1801 100.27 31.2705 100.296 31.3748C100.322 31.4792 100.307 31.5895 100.254 31.6832C100.209 31.7325 100.153 31.7707 100.09 31.7951C100.028 31.8194 99.9608 31.8291 99.8941 31.8235Z" fill="#27A577"/>
<path d="M101.436 28.7381C101.965 29.0412 102.393 29.4946 102.665 30.0411C102.937 30.5875 103.041 31.2024 102.963 31.8079C102.886 32.4134 102.631 32.9823 102.23 33.4427C101.829 33.903 101.301 34.2341 100.713 34.394C100.124 34.554 99.5012 34.5355 98.923 34.341C98.3448 34.1466 97.8372 33.7848 97.4645 33.3015C97.0918 32.8183 96.8707 32.2352 96.8293 31.6262C96.7878 31.0172 96.9278 30.4095 97.2315 29.8801C97.642 29.1753 98.313 28.6604 99.0997 28.4467C99.8864 28.2331 100.725 28.3377 101.436 28.7381Z" fill="#27A577"/>
<path d="M53.029 0.810146C52.5 0.508466 51.8937 0.370257 51.2863 0.412974C50.679 0.455691 50.0979 0.677429 49.6163 1.05019C49.1347 1.42294 48.7741 1.93002 48.5801 2.50755C48.3861 3.08507 48.3673 3.70717 48.5261 4.29537C48.6849 4.88357 49.0141 5.41157 49.4723 5.81277C49.9305 6.21397 50.4972 6.47046 51.1009 6.54983C51.7045 6.62919 52.3181 6.52787 52.8643 6.25873C53.4106 5.9896 53.8649 5.56464 54.1702 5.03744C54.374 4.68526 54.5063 4.29619 54.5593 3.89263C54.6123 3.48908 54.5849 3.07901 54.4788 2.68608C54.3728 2.29314 54.1901 1.92511 53.9412 1.60315C53.6924 1.28118 53.3824 1.01168 53.029 0.810146Z" fill="#27A577"/>
<path d="M3.07823 31.8236C3.00861 31.8246 2.94008 31.8064 2.88007 31.7711C2.82006 31.7357 2.77087 31.6846 2.7379 31.6232C2.70918 31.5775 2.69 31.5264 2.68151 31.4731C2.67301 31.4197 2.67538 31.3652 2.68847 31.3128C2.70156 31.2604 2.72512 31.2112 2.75769 31.1681C2.79027 31.1251 2.83121 31.0891 2.87805 31.0623L51.2862 3.01378C51.3798 2.96104 51.4901 2.94619 51.5943 2.97227C51.6986 2.99835 51.7889 3.0634 51.8467 3.15404C51.8994 3.24775 51.9143 3.35811 51.8882 3.46243C51.8621 3.56676 51.7972 3.65714 51.7066 3.71501L3.29845 31.7635C3.23125 31.8017 3.15552 31.8224 3.07823 31.8236Z" fill="#27A577"/>
<path d="M49.9453 0.809995C50.4728 0.505197 51.0788 0.363604 51.6866 0.403109C52.2945 0.442614 52.877 0.661476 53.3607 1.03199C53.8444 1.40251 54.2076 1.90809 54.4044 2.48498C54.6012 3.06187 54.6229 3.68419 54.4666 4.27338C54.3104 4.86257 53.9832 5.39223 53.5264 5.79552C53.0697 6.19881 52.5037 6.45763 51.9001 6.53935C51.2965 6.62107 50.6822 6.52202 50.1347 6.25468C49.5873 5.98734 49.1313 5.56367 48.8242 5.0372C48.4161 4.32707 48.305 3.48438 48.5149 2.69261C48.7249 1.90084 49.239 1.22416 49.9453 0.809995Z" fill="#27A577"/>
<path d="M1.53751 28.7385C1.01069 29.044 0.586066 29.4987 0.317122 30.0453C0.0481779 30.5919 -0.0530417 31.206 0.0262702 31.8101C0.105582 32.4142 0.361851 32.9812 0.762764 33.4398C1.16368 33.8983 1.69129 34.2278 2.27907 34.3867C2.86685 34.5456 3.4885 34.5268 4.06561 34.3327C4.64272 34.1385 5.14946 33.7777 5.52195 33.2957C5.89444 32.8138 6.11599 32.2322 6.15867 31.6244C6.20136 31.0167 6.06325 30.4099 5.76179 29.8805C5.34753 29.1743 4.67287 28.659 3.8829 28.4455C3.09293 28.2319 2.25075 28.3371 1.53751 28.7385Z" fill="#27A577"/>
<path d="M241.916 3.45485C241.916 4.06508 242.097 4.66157 242.435 5.16895C242.774 5.67634 243.256 6.0718 243.819 6.30533C244.382 6.53885 245.002 6.59998 245.6 6.48093C246.198 6.36188 246.748 6.068 247.179 5.6365C247.61 5.20501 247.904 4.65529 248.023 4.05679C248.142 3.45829 248.08 2.83792 247.847 2.27415C247.614 1.71037 247.219 1.2285 246.712 0.889475C246.205 0.55045 245.609 0.369467 244.999 0.369467C244.593 0.366804 244.191 0.444819 243.816 0.598931C243.441 0.753042 243.1 0.980173 242.813 1.26721C242.526 1.55424 242.299 1.89543 242.145 2.27097C241.991 2.6465 241.913 3.04893 241.916 3.45485Z" fill="#27A577"/>
<path d="M293.506 31.8239C293.441 31.8439 293.371 31.8439 293.306 31.8239L244.898 3.77533C244.851 3.74851 244.81 3.71244 244.778 3.66937C244.745 3.62631 244.722 3.57711 244.708 3.52472C244.695 3.47232 244.693 3.4178 244.702 3.36447C244.71 3.31113 244.729 3.2601 244.758 3.21437C244.816 3.12372 244.906 3.05867 245.01 3.03259C245.115 3.00651 245.225 3.02136 245.318 3.07411L293.707 31.1226C293.801 31.1773 293.87 31.2662 293.9 31.3708C293.929 31.4754 293.918 31.5875 293.867 31.6836C293.821 31.7329 293.765 31.7711 293.703 31.7954C293.64 31.8197 293.573 31.8295 293.506 31.8239Z" fill="#27A577"/>
<path d="M243.577 6.11873C243.048 5.81381 242.621 5.35868 242.351 4.81101C242.081 4.26334 241.98 3.64775 242.059 3.04224C242.139 2.43673 242.397 1.86854 242.799 1.40963C243.202 0.950712 243.732 0.621714 244.322 0.464345C244.911 0.306977 245.534 0.328296 246.112 0.525607C246.69 0.722918 247.196 1.08738 247.566 1.57275C247.937 2.05812 248.155 2.64258 248.193 3.25213C248.231 3.86168 248.088 4.46889 247.781 4.99681C247.371 5.7022 246.698 6.2163 245.91 6.42657C245.122 6.63683 244.283 6.52614 243.577 6.11873Z" fill="#27A577"/>
<path d="M291.965 34.0873C292.493 34.3944 293.1 34.538 293.709 34.4997C294.318 34.4615 294.902 34.2431 295.387 33.8724C295.872 33.5017 296.236 32.9953 296.433 32.4172C296.63 31.8392 296.652 31.2157 296.494 30.6255C296.337 30.0354 296.008 29.5052 295.55 29.1022C295.091 28.6992 294.523 28.4415 293.918 28.3616C293.313 28.2818 292.698 28.3835 292.151 28.6538C291.604 28.9242 291.149 29.351 290.844 29.8802C290.437 30.5873 290.326 31.4269 290.536 32.2154C290.747 33.0039 291.26 33.677 291.965 34.0873Z" fill="#27A577"/>
<path d="M242.035 3.45485C242.035 4.06508 242.216 4.66157 242.555 5.16895C242.893 5.67634 243.375 6.0718 243.938 6.30533C244.502 6.53885 245.121 6.59998 245.72 6.48093C246.318 6.36188 246.867 6.068 247.298 5.6365C247.729 5.20501 248.023 4.65529 248.142 4.05679C248.261 3.45829 248.2 2.83792 247.966 2.27415C247.733 1.71037 247.338 1.2285 246.831 0.889475C246.324 0.55045 245.728 0.369467 245.118 0.369467C244.712 0.366804 244.31 0.444819 243.935 0.598931C243.56 0.753042 243.219 0.980173 242.932 1.26721C242.645 1.55424 242.418 1.89543 242.264 2.27097C242.11 2.6465 242.032 3.04893 242.035 3.45485Z" fill="#27A577"/>
<path d="M145.219 3.45487C145.219 4.0651 145.4 4.66159 145.739 5.16898C146.078 5.67637 146.559 6.07183 147.123 6.30536C147.686 6.53888 148.306 6.60001 148.904 6.48096C149.502 6.36191 150.051 6.06803 150.482 5.63653C150.914 5.20503 151.207 4.65532 151.326 4.05681C151.445 3.45831 151.384 2.83794 151.151 2.27417C150.917 1.71039 150.522 1.22852 150.015 0.889491C149.508 0.550466 148.912 0.369481 148.302 0.369481C147.897 0.36682 147.495 0.444835 147.119 0.598946C146.744 0.753058 146.403 0.98019 146.116 1.26722C145.83 1.55426 145.603 1.89545 145.449 2.27099C145.295 2.64652 145.217 3.04895 145.219 3.45487Z" fill="#27A577"/>
<path d="M196.711 31.8236C196.639 31.8414 196.563 31.8414 196.491 31.8236L148.103 3.7751C148.01 3.72197 147.942 3.63405 147.914 3.53073C147.885 3.4274 147.899 3.31709 147.953 3.2241C148.006 3.13112 148.093 3.06305 148.197 3.03487C148.3 3.0067 148.41 3.02075 148.503 3.07388L196.911 31.1223C196.958 31.1492 196.999 31.1852 197.032 31.2282C197.064 31.2713 197.088 31.3205 197.101 31.3729C197.114 31.4253 197.116 31.4798 197.108 31.5331C197.099 31.5865 197.08 31.6376 197.051 31.6833C197.011 31.7336 196.959 31.7728 196.899 31.7973C196.84 31.8219 196.775 31.8309 196.711 31.8236Z" fill="#27A577"/>
<path d="M146.761 6.11873C146.232 5.81381 145.806 5.35868 145.536 4.811C145.265 4.26333 145.164 3.64774 145.244 3.04222C145.323 2.4367 145.581 1.86852 145.984 1.4096C146.386 0.950685 146.916 0.621684 147.506 0.464315C148.096 0.306946 148.719 0.328265 149.296 0.525577C149.874 0.722889 150.38 1.08735 150.75 1.57272C151.121 2.0581 151.339 2.64256 151.377 3.25212C151.415 3.86167 151.272 4.46888 150.965 4.99681C150.555 5.7022 149.883 6.2163 149.095 6.42656C148.307 6.63683 147.468 6.52614 146.761 6.11873Z" fill="#27A577"/>
<path d="M195.17 34.0879C195.699 34.3918 196.306 34.532 196.915 34.4905C197.523 34.449 198.106 34.2277 198.589 33.8547C199.072 33.4818 199.433 32.9738 199.627 32.3952C199.822 31.8165 199.84 31.1932 199.68 30.6041C199.521 30.0149 199.19 29.4865 198.73 29.0856C198.27 28.6847 197.701 28.4293 197.096 28.3519C196.491 28.2744 195.877 28.3784 195.331 28.6505C194.785 28.9226 194.332 29.3507 194.029 29.8806C193.629 30.5914 193.524 31.4311 193.738 32.2184C193.951 33.0056 194.466 33.6771 195.17 34.0879Z" fill="#27A577"/>
<path d="M196.711 31.8235C196.639 31.8221 196.568 31.8031 196.506 31.7681C196.443 31.7332 196.389 31.6835 196.35 31.6232C196.298 31.5295 196.283 31.4191 196.309 31.3148C196.335 31.2105 196.4 31.1201 196.49 31.0622L244.898 3.01375C244.992 2.96101 245.102 2.94616 245.207 2.97224C245.311 2.99832 245.401 3.06337 245.459 3.15401C245.488 3.19974 245.507 3.25077 245.515 3.30411C245.524 3.35745 245.522 3.41196 245.508 3.46436C245.495 3.51676 245.472 3.56596 245.439 3.60902C245.407 3.65208 245.366 3.68815 245.319 3.71498L196.911 31.7634C196.851 31.8018 196.782 31.8226 196.711 31.8235Z" fill="#27A577"/>
<path d="M198.252 34.0874C197.724 34.3945 197.117 34.5381 196.508 34.4998C195.899 34.4615 195.315 34.2431 194.83 33.8724C194.345 33.5017 193.981 32.9953 193.784 32.4173C193.586 31.8393 193.565 31.2157 193.722 30.6256C193.88 30.0355 194.208 29.5053 194.667 29.1023C195.126 28.6993 195.693 28.4416 196.298 28.3617C196.904 28.2819 197.519 28.3836 198.066 28.6539C198.613 28.9243 199.068 29.3511 199.373 29.8803C199.769 30.5897 199.874 31.4259 199.665 32.2113C199.455 32.9968 198.949 33.6698 198.252 34.0874Z" fill="#27A577"/>
<path d="M246.639 6.11873C247.168 5.81381 247.595 5.35868 247.865 4.81101C248.135 4.26334 248.237 3.64775 248.157 3.04224C248.077 2.43672 247.82 1.86854 247.417 1.40963C247.014 0.950712 246.484 0.621713 245.895 0.464345C245.305 0.306977 244.682 0.328296 244.104 0.525607C243.527 0.722918 243.021 1.08738 242.65 1.57275C242.28 2.05812 242.062 2.64258 242.023 3.25213C241.985 3.86168 242.128 4.46889 242.435 4.99681C242.845 5.70221 243.518 6.2163 244.306 6.42657C245.094 6.63683 245.933 6.52614 246.639 6.11873Z" fill="#27A577"/>
<path d="M145.219 3.45487C145.219 4.0651 145.4 4.66159 145.739 5.16898C146.078 5.67637 146.559 6.07183 147.123 6.30536C147.686 6.53888 148.306 6.60001 148.904 6.48096C149.502 6.36191 150.051 6.06803 150.482 5.63653C150.914 5.20503 151.207 4.65532 151.326 4.05681C151.445 3.45831 151.384 2.83794 151.151 2.27417C150.917 1.71039 150.522 1.22852 150.015 0.889491C149.508 0.550466 148.912 0.369481 148.302 0.369481C147.897 0.36682 147.495 0.444835 147.119 0.598946C146.744 0.753058 146.403 0.98019 146.116 1.26722C145.83 1.55426 145.603 1.89545 145.449 2.27099C145.295 2.64652 145.217 3.04895 145.219 3.45487Z" fill="#27A577"/>
<path d="M48.4037 3.45484C48.4037 4.06506 48.5845 4.66155 48.9233 5.16894C49.2621 5.67632 49.7436 6.07179 50.3069 6.30531C50.8703 6.53884 51.4902 6.59996 52.0882 6.48091C52.6863 6.36186 53.2356 6.06798 53.6668 5.63649C54.098 5.20499 54.3916 4.65528 54.5106 4.05677C54.6295 3.45827 54.5685 2.83791 54.3351 2.27413C54.1018 1.71035 53.7066 1.22848 53.1996 0.88946C52.6926 0.550435 52.0965 0.369451 51.4868 0.369451C51.0812 0.366789 50.679 0.444804 50.3038 0.598915C49.9285 0.753027 49.5876 0.980158 49.3008 1.26719C49.014 1.55423 48.787 1.89542 48.633 2.27095C48.479 2.64649 48.4011 3.04892 48.4037 3.45484Z" fill="#27A577"/>
<path d="M99.8941 31.8235C99.8285 31.8414 99.7594 31.8414 99.6939 31.8235L51.3059 3.77503C51.2129 3.7219 51.1449 3.63397 51.1168 3.53065C51.0886 3.42733 51.1026 3.31702 51.1557 3.22403C51.2088 3.13104 51.2966 3.06298 51.3999 3.0348C51.5031 3.00662 51.6134 3.02067 51.7063 3.07381L100.114 31.1223C100.205 31.1801 100.27 31.2705 100.296 31.3748C100.322 31.4792 100.307 31.5895 100.254 31.6832C100.209 31.7325 100.153 31.7707 100.09 31.7951C100.028 31.8194 99.9608 31.8291 99.8941 31.8235Z" fill="#27A577"/>
<path d="M49.9649 6.11895C49.2561 5.70981 48.7387 5.03563 48.5266 4.24473C48.3145 3.45383 48.425 2.61103 48.8338 1.90168C49.2426 1.19232 49.9163 0.674512 50.7066 0.462228C51.4969 0.249944 52.3391 0.360564 53.048 0.769707C53.7568 1.17885 54.2742 1.85303 54.4863 2.64393C54.6984 3.43483 54.5879 4.27762 54.1791 4.98698C53.7702 5.69634 53.0966 6.21415 52.3063 6.42643C51.516 6.63871 50.6737 6.52809 49.9649 6.11895Z" fill="#27A577"/>
<path d="M98.3528 34.0878C98.7038 34.2904 99.0912 34.4218 99.4929 34.4746C99.8947 34.5273 100.303 34.5004 100.694 34.3953C101.086 34.2902 101.452 34.109 101.774 33.862C102.095 33.615 102.365 33.3071 102.567 32.9559C102.769 32.6047 102.901 32.2169 102.954 31.8149C103.006 31.4129 102.979 31.0044 102.874 30.6128C102.769 30.2212 102.588 29.8541 102.341 29.5325C102.095 29.2109 101.787 28.9412 101.436 28.7386C100.727 28.3294 99.8849 28.2188 99.0945 28.4311C98.3042 28.6434 97.6305 29.1612 97.2217 29.8705C96.8128 30.5799 96.7023 31.4228 96.9144 32.2137C97.1266 33.0046 97.644 33.6787 98.3528 34.0878Z" fill="#27A577"/>
<path d="M99.8937 31.8236C99.824 31.8246 99.7555 31.8064 99.6955 31.7711C99.6355 31.7357 99.5863 31.6846 99.5533 31.6232C99.5246 31.5775 99.5054 31.5264 99.4969 31.4731C99.4884 31.4197 99.4908 31.3652 99.5039 31.3128C99.517 31.2604 99.5405 31.2112 99.5731 31.1682C99.6057 31.1251 99.6466 31.0891 99.6935 31.0623L148.101 3.01378C148.195 2.96104 148.305 2.94619 148.41 2.97227C148.514 2.99835 148.604 3.0634 148.662 3.15404C148.69 3.20099 148.708 3.25313 148.715 3.30732C148.722 3.36151 148.718 3.41656 148.703 3.4691C148.688 3.52164 148.662 3.57056 148.628 3.61284C148.593 3.65512 148.55 3.68992 148.502 3.71501L100.114 31.7635C100.047 31.8017 99.9709 31.8224 99.8937 31.8236Z" fill="#27A577"/>
<path d="M101.436 34.0879C100.907 34.3919 100.3 34.532 99.6911 34.4905C99.0825 34.449 98.4999 34.2277 98.017 33.8548C97.5341 33.4818 97.1726 32.9738 96.9783 32.3952C96.7839 31.8166 96.7655 31.1932 96.9253 30.6041C97.0851 30.0149 97.4159 29.4865 97.8759 29.0856C98.336 28.6847 98.9044 28.4293 99.5095 28.3519C100.115 28.2744 100.729 28.3784 101.275 28.6505C101.821 28.9226 102.274 29.3507 102.577 29.8807C102.977 30.5914 103.082 31.4311 102.868 32.2184C102.655 33.0056 102.14 33.6772 101.436 34.0879Z" fill="#27A577"/>
<path d="M149.825 6.11872C150.354 5.81381 150.78 5.35868 151.05 4.811C151.32 4.26333 151.422 3.64774 151.342 3.04222C151.262 2.4367 151.005 1.86852 150.602 1.4096C150.199 0.950684 149.67 0.621684 149.08 0.464315C148.49 0.306946 147.867 0.328265 147.29 0.525577C146.712 0.722889 146.206 1.08735 145.836 1.57272C145.465 2.0581 145.247 2.64256 145.209 3.25212C145.17 3.86167 145.314 4.46888 145.621 4.99681C146.031 5.7022 146.703 6.2163 147.491 6.42657C148.279 6.63683 149.118 6.52614 149.825 6.11872Z" fill="#27A577"/>
<path d="M48.4226 3.45484C48.4226 4.06506 48.6035 4.66155 48.9422 5.16894C49.281 5.67632 49.7625 6.07179 50.3259 6.30531C50.8892 6.53884 51.5091 6.59996 52.1072 6.48091C52.7052 6.36186 53.2545 6.06798 53.6857 5.63649C54.1169 5.20499 54.4105 4.65528 54.5295 4.05677C54.6484 3.45827 54.5874 2.83791 54.354 2.27413C54.1207 1.71035 53.7255 1.22848 53.2185 0.88946C52.7115 0.550435 52.1154 0.369451 51.5057 0.369451C51.1001 0.366789 50.698 0.444804 50.3227 0.598915C49.9475 0.753027 49.6065 0.980158 49.3197 1.26719C49.0329 1.55423 48.8059 1.89542 48.6519 2.27095C48.4979 2.64649 48.42 3.04892 48.4226 3.45484Z" fill="#27A577"/>
<path d="M3.09753 31.8235C3.0257 31.822 2.95528 31.803 2.89247 31.7681C2.82965 31.7332 2.77634 31.6834 2.73716 31.6231C2.68621 31.527 2.67443 31.4149 2.70429 31.3103C2.73415 31.2057 2.80334 31.1168 2.89732 31.0622L51.3053 3.01369C51.3513 2.98738 51.4021 2.97036 51.4546 2.96367C51.5072 2.95699 51.5606 2.96073 51.6117 2.97468C51.6628 2.98863 51.7107 3.01252 51.7526 3.04499C51.7945 3.07746 51.8296 3.11787 51.8559 3.16391C51.8822 3.20995 51.8992 3.26073 51.9058 3.31334C51.9125 3.36595 51.9088 3.41937 51.8948 3.47053C51.8809 3.52169 51.857 3.5696 51.8246 3.61152C51.7921 3.65345 51.7518 3.6886 51.7057 3.71491L3.29771 31.7634C3.2379 31.8017 3.16856 31.8226 3.09753 31.8235Z" fill="#27A577"/>
<path d="M4.64075 34.0874C4.1132 34.3945 3.50643 34.538 2.89731 34.4998C2.2882 34.4615 1.70415 34.2431 1.21913 33.8724C0.734103 33.5017 0.369936 32.9953 0.172767 32.4173C-0.0244033 31.8393 -0.0457075 31.2157 0.111548 30.6256C0.268804 30.0355 0.597537 29.5053 1.05612 29.1023C1.51471 28.6993 2.08252 28.4415 2.6876 28.3617C3.29268 28.2819 3.90783 28.3836 4.45511 28.6539C5.00239 28.9242 5.45716 29.3511 5.76186 29.8803C6.16898 30.5873 6.27959 31.427 6.06948 32.2155C5.85936 33.004 5.34563 33.677 4.64075 34.0874Z" fill="#27A577"/>
<path d="M53.0479 6.11871C53.5767 5.8138 54.0032 5.35867 54.2733 4.81099C54.5435 4.26332 54.6451 3.64774 54.5653 3.04222C54.4856 2.43671 54.228 1.86852 53.8253 1.40961C53.4225 0.950697 52.8928 0.621698 52.3031 0.46433C51.7134 0.306962 51.0903 0.328281 50.5127 0.525592C49.9351 0.722903 49.429 1.08736 49.0586 1.57273C48.6881 2.0581 48.4699 2.64256 48.4317 3.25212C48.3934 3.86167 48.5368 4.46887 48.8437 4.9968C49.2538 5.70219 49.9264 6.21628 50.7143 6.42655C51.5022 6.63682 52.3413 6.52613 53.0479 6.11871Z" fill="#27A577"/>
</svg>
