<svg width="48" height="47" viewBox="0 0 48 47" fill="none" xmlns="http://www.w3.org/2000/svg">
<path fill-rule="evenodd" clip-rule="evenodd" d="M24 35.25C24 41.7394 18.6275 47 12 47C5.37253 47 0 41.7394 0 35.25C0 28.781 5.33893 23.5332 11.9379 23.5003C5.3392 23.4671 0.000427246 18.219 0.000427246 11.7503C0.000427246 5.26087 5.37307 0.000313759 12.0005 0.000313759C18.6027 0.000313759 23.9595 5.22092 24.0003 11.6761C24.0408 5.22065 29.3979 0 36 0C42.6275 0 48 5.26061 48 11.75C48 18.2378 42.6299 23.4977 36.0043 23.5C42.6299 23.5023 48 28.7622 48 35.25C48 41.7394 42.6275 47 36 47C29.3725 47 24 41.7394 24 35.25ZM36 23.4648C29.3805 23.4648 24.0096 18.2269 23.9688 11.75C23.928 18.2065 18.5909 23.4321 12 23.465C18.6144 23.4982 23.9661 28.7614 23.9685 35.25C23.9709 28.7408 29.3565 23.4648 36 23.4648Z" fill="#27A577"/>
</svg>
